<?xml version="1.0" encoding="UTF-8" standalone="no"?><!DOCTYPE svg PUBLIC "-//W3C//DTD SVG 1.1//EN" "http://www.w3.org/Graphics/SVG/1.1/DTD/svg11.dtd"><svg width="100%" height="100%" viewBox="0 0 1200 600" version="1.1" xmlns="http://www.w3.org/2000/svg" xmlns:xlink="http://www.w3.org/1999/xlink" xml:space="preserve" xmlns:serif="http://www.serif.com/" style="fill-rule:evenodd;clip-rule:evenodd;stroke-linejoin:round;stroke-miterlimit:2;"><rect x="0" y="0" width="1200" height="600" style="fill:#d6eaf4;"/><g transform="matrix(1,0,0,1,-107.1,80.1369)"><g transform="matrix(48,0,0,48,282.681,207.448)"><path d="M0.23,-0.412l0,-0.168l0.036,0c0.028,0 0.048,0.006 0.061,0.019c0.012,0.013 0.018,0.034 0.018,0.064c0,0.025 -0.006,0.046 -0.019,0.062c-0.013,0.015 -0.032,0.023 -0.059,0.023l-0.037,0Zm-0.186,-0.302l0,0.714l0.186,0l0,-0.286l0.049,0c0.011,0 0.021,0.002 0.028,0.005c0.008,0.003 0.014,0.008 0.019,0.016c0.005,0.007 0.009,0.018 0.011,0.031c0.002,0.013 0.003,0.03 0.003,0.05l0,0.048c0,0.007 0,0.017 0,0.029c0.001,0.011 0.002,0.023 0.002,0.036c0.001,0.013 0.003,0.025 0.005,0.038c0.003,0.013 0.006,0.024 0.011,0.033l0.198,0l0,-0.01c-0.006,-0.003 -0.01,-0.007 -0.013,-0.01c-0.003,-0.004 -0.005,-0.008 -0.008,-0.012c-0.002,-0.004 -0.004,-0.01 -0.005,-0.017c-0.001,-0.007 -0.002,-0.015 -0.003,-0.024c-0.001,-0.009 -0.001,-0.019 -0.001,-0.029l0,-0.029l0,-0.061c0,-0.048 -0.008,-0.086 -0.025,-0.113c-0.017,-0.027 -0.047,-0.043 -0.092,-0.047l0,-0.002c0.043,-0.007 0.074,-0.025 0.093,-0.054c0.019,-0.029 0.029,-0.068 0.029,-0.116c0,-0.027 -0.004,-0.053 -0.011,-0.076c-0.007,-0.023 -0.018,-0.043 -0.034,-0.061c-0.015,-0.017 -0.035,-0.03 -0.061,-0.039c-0.024,-0.009 -0.055,-0.014 -0.09,-0.014l-0.291,0Z" style="fill-rule:nonzero;"/></g><g transform="matrix(48,0,0,48,310.233,207.448)"><path d="M0.215,-0.357c0,-0.048 0.001,-0.088 0.002,-0.12c0.001,-0.031 0.004,-0.056 0.009,-0.075c0.004,-0.019 0.01,-0.032 0.018,-0.039c0.009,-0.007 0.02,-0.011 0.034,-0.011c0.014,0 0.025,0.004 0.033,0.011c0.009,0.007 0.015,0.02 0.019,0.039c0.005,0.019 0.008,0.044 0.009,0.075c0.001,0.032 0.002,0.072 0.002,0.12c0,0.048 -0.001,0.088 -0.002,0.119c-0.001,0.032 -0.004,0.057 -0.009,0.076c-0.004,0.019 -0.01,0.032 -0.019,0.039c-0.008,0.007 -0.019,0.011 -0.033,0.011c-0.014,0 -0.025,-0.004 -0.034,-0.011c-0.008,-0.007 -0.014,-0.02 -0.019,-0.039c-0.004,-0.019 -0.007,-0.044 -0.008,-0.076c-0.001,-0.031 -0.002,-0.071 -0.002,-0.119Zm-0.192,0c0,0.067 0.004,0.123 0.013,0.17c0.009,0.047 0.023,0.086 0.043,0.115c0.02,0.03 0.046,0.051 0.079,0.064c0.033,0.013 0.073,0.019 0.12,0.019c0.047,0 0.087,-0.006 0.12,-0.019c0.033,-0.013 0.059,-0.034 0.079,-0.064c0.02,-0.029 0.034,-0.068 0.043,-0.115c0.009,-0.047 0.013,-0.103 0.013,-0.17c0,-0.067 -0.004,-0.124 -0.013,-0.171c-0.009,-0.047 -0.023,-0.085 -0.043,-0.115c-0.02,-0.029 -0.046,-0.051 -0.079,-0.065c-0.033,-0.013 -0.073,-0.02 -0.12,-0.02c-0.047,0 -0.087,0.007 -0.12,0.02c-0.033,0.014 -0.059,0.036 -0.079,0.066c-0.02,0.029 -0.034,0.067 -0.043,0.114c-0.009,0.047 -0.013,0.104 -0.013,0.171Z" style="fill-rule:nonzero;"/></g><g transform="matrix(48,0,0,48,336.921,207.448)"><path d="M0.236,-0.134l0,-0.174l0.052,0c0.017,0 0.033,0.007 0.046,0.022c0.013,0.015 0.02,0.036 0.02,0.064c0,0.03 -0.007,0.052 -0.02,0.067c-0.013,0.014 -0.029,0.021 -0.046,0.021l-0.052,0Zm0,-0.3l0,-0.146l0.045,0c0.019,0 0.034,0.007 0.044,0.022c0.01,0.015 0.015,0.032 0.015,0.052c0,0.019 -0.005,0.036 -0.015,0.05c-0.01,0.015 -0.025,0.022 -0.044,0.022l-0.045,0Zm-0.186,-0.28l0,0.714l0.281,0c0.039,0 0.072,-0.005 0.099,-0.016c0.027,-0.01 0.049,-0.024 0.066,-0.043c0.017,-0.019 0.03,-0.041 0.038,-0.067c0.008,-0.026 0.012,-0.054 0.012,-0.085c0,-0.019 -0.003,-0.037 -0.008,-0.055c-0.005,-0.019 -0.012,-0.036 -0.023,-0.051c-0.011,-0.015 -0.024,-0.028 -0.041,-0.038c-0.017,-0.011 -0.037,-0.017 -0.06,-0.019l0,-0.002c0.02,-0.004 0.037,-0.011 0.051,-0.021c0.014,-0.01 0.025,-0.022 0.034,-0.036c0.01,-0.015 0.016,-0.031 0.02,-0.048c0.005,-0.018 0.007,-0.036 0.007,-0.055c0,-0.054 -0.016,-0.097 -0.047,-0.129c-0.032,-0.033 -0.081,-0.049 -0.148,-0.049l-0.281,0Z" style="fill-rule:nonzero;"/></g><g transform="matrix(48,0,0,48,364.473,207.448)"><path d="M0.215,-0.357c0,-0.048 0.001,-0.088 0.002,-0.12c0.001,-0.031 0.004,-0.056 0.009,-0.075c0.004,-0.019 0.01,-0.032 0.018,-0.039c0.009,-0.007 0.02,-0.011 0.034,-0.011c0.014,0 0.025,0.004 0.033,0.011c0.009,0.007 0.015,0.02 0.019,0.039c0.005,0.019 0.008,0.044 0.009,0.075c0.001,0.032 0.002,0.072 0.002,0.12c0,0.048 -0.001,0.088 -0.002,0.119c-0.001,0.032 -0.004,0.057 -0.009,0.076c-0.004,0.019 -0.01,0.032 -0.019,0.039c-0.008,0.007 -0.019,0.011 -0.033,0.011c-0.014,0 -0.025,-0.004 -0.034,-0.011c-0.008,-0.007 -0.014,-0.02 -0.019,-0.039c-0.004,-0.019 -0.007,-0.044 -0.008,-0.076c-0.001,-0.031 -0.002,-0.071 -0.002,-0.119Zm-0.192,0c0,0.067 0.004,0.123 0.013,0.17c0.009,0.047 0.023,0.086 0.043,0.115c0.02,0.03 0.046,0.051 0.079,0.064c0.033,0.013 0.073,0.019 0.12,0.019c0.047,0 0.087,-0.006 0.12,-0.019c0.033,-0.013 0.059,-0.034 0.079,-0.064c0.02,-0.029 0.034,-0.068 0.043,-0.115c0.009,-0.047 0.013,-0.103 0.013,-0.17c0,-0.067 -0.004,-0.124 -0.013,-0.171c-0.009,-0.047 -0.023,-0.085 -0.043,-0.115c-0.02,-0.029 -0.046,-0.051 -0.079,-0.065c-0.033,-0.013 -0.073,-0.02 -0.12,-0.02c-0.047,0 -0.087,0.007 -0.12,0.02c-0.033,0.014 -0.059,0.036 -0.079,0.066c-0.02,0.029 -0.034,0.067 -0.043,0.114c-0.009,0.047 -0.013,0.104 -0.013,0.171Z" style="fill-rule:nonzero;"/></g><g transform="matrix(48,0,0,48,391.161,207.448)"><path d="M0.138,-0.556l0,0.556l0.186,0l0,-0.556l0.14,0l0,-0.158l-0.464,0l0,0.158l0.138,0Z" style="fill-rule:nonzero;"/></g><g transform="matrix(48,0,0,48,282.681,256.792)"><path d="M0.044,-0.714l0,0.714l0.186,0l0,-0.294l0.222,0l0,-0.146l-0.222,0l0,-0.122l0.237,0l0,-0.152l-0.423,0Z" style="fill-rule:nonzero;"/></g><g transform="matrix(48,0,0,48,305.769,256.792)"><path d="M0.23,-0.412l0,-0.168l0.036,0c0.028,0 0.048,0.006 0.061,0.019c0.012,0.013 0.018,0.034 0.018,0.064c0,0.025 -0.006,0.046 -0.019,0.062c-0.013,0.015 -0.032,0.023 -0.059,0.023l-0.037,0Zm-0.186,-0.302l0,0.714l0.186,0l0,-0.286l0.049,0c0.011,0 0.021,0.002 0.028,0.005c0.008,0.003 0.014,0.008 0.019,0.016c0.005,0.007 0.009,0.018 0.011,0.031c0.002,0.013 0.003,0.03 0.003,0.05l0,0.048c0,0.007 0,0.017 0,0.029c0.001,0.011 0.002,0.023 0.002,0.036c0.001,0.013 0.003,0.025 0.005,0.038c0.003,0.013 0.006,0.024 0.011,0.033l0.198,0l0,-0.01c-0.006,-0.003 -0.01,-0.007 -0.013,-0.01c-0.003,-0.004 -0.005,-0.008 -0.008,-0.012c-0.002,-0.004 -0.004,-0.01 -0.005,-0.017c-0.001,-0.007 -0.002,-0.015 -0.003,-0.024c-0.001,-0.009 -0.001,-0.019 -0.001,-0.029l0,-0.029l0,-0.061c0,-0.048 -0.008,-0.086 -0.025,-0.113c-0.017,-0.027 -0.047,-0.043 -0.092,-0.047l0,-0.002c0.043,-0.007 0.074,-0.025 0.093,-0.054c0.019,-0.029 0.029,-0.068 0.029,-0.116c0,-0.027 -0.004,-0.053 -0.011,-0.076c-0.007,-0.023 -0.018,-0.043 -0.034,-0.061c-0.015,-0.017 -0.035,-0.03 -0.061,-0.039c-0.024,-0.009 -0.055,-0.014 -0.09,-0.014l-0.291,0Z" style="fill-rule:nonzero;"/></g><g transform="matrix(48,0,0,48,333.321,256.792)"><path d="M0.277,-0.568l-0.051,0.303l0.104,0l-0.051,-0.303l-0.002,0Zm0.118,-0.146l0.174,0.714l-0.198,0l-0.019,-0.125l-0.148,0l-0.019,0.125l-0.195,0l0.171,-0.714l0.234,0Z" style="fill-rule:nonzero;"/></g><g transform="matrix(48,0,0,48,360.009,256.792)"><path d="M0.037,-0.714l0,0.714l0.174,0l0,-0.532l0.002,0l0.099,0.532l0.134,0l0.099,-0.532l0.002,0l0,0.532l0.174,0l0,-0.714l-0.266,0l-0.075,0.423l-0.002,0l-0.075,-0.423l-0.266,0Z" style="fill-rule:nonzero;"/></g><g transform="matrix(48,0,0,48,396.393,256.792)"><path d="M0.044,-0.714l0,0.714l0.432,0l0,-0.152l-0.246,0l0,-0.142l0.222,0l0,-0.146l-0.222,0l0,-0.122l0.237,0l0,-0.152l-0.423,0Z" style="fill-rule:nonzero;"/></g><g transform="matrix(48,0,0,48,420.393,256.792)"><path d="M0.305,-0.714l-0.067,0.494l-0.002,0l-0.056,-0.494l-0.18,0l0.122,0.714l0.204,0l0.062,-0.48l0.002,0l0.062,0.48l0.204,0l0.122,-0.714l-0.18,0l-0.05,0.494l-0.002,0l-0.073,-0.494l-0.168,0Z" style="fill-rule:nonzero;"/></g><g transform="matrix(48,0,0,48,457.737,256.792)"><path d="M0.215,-0.357c0,-0.048 0.001,-0.088 0.002,-0.12c0.001,-0.031 0.004,-0.056 0.009,-0.075c0.004,-0.019 0.01,-0.032 0.018,-0.039c0.009,-0.007 0.02,-0.011 0.034,-0.011c0.014,0 0.025,0.004 0.033,0.011c0.009,0.007 0.015,0.02 0.019,0.039c0.005,0.019 0.008,0.044 0.009,0.075c0.001,0.032 0.002,0.072 0.002,0.12c0,0.048 -0.001,0.088 -0.002,0.119c-0.001,0.032 -0.004,0.057 -0.009,0.076c-0.004,0.019 -0.01,0.032 -0.019,0.039c-0.008,0.007 -0.019,0.011 -0.033,0.011c-0.014,0 -0.025,-0.004 -0.034,-0.011c-0.008,-0.007 -0.014,-0.02 -0.019,-0.039c-0.004,-0.019 -0.007,-0.044 -0.008,-0.076c-0.001,-0.031 -0.002,-0.071 -0.002,-0.119Zm-0.192,0c0,0.067 0.004,0.123 0.013,0.17c0.009,0.047 0.023,0.086 0.043,0.115c0.02,0.03 0.046,0.051 0.079,0.064c0.033,0.013 0.073,0.019 0.12,0.019c0.047,0 0.087,-0.006 0.12,-0.019c0.033,-0.013 0.059,-0.034 0.079,-0.064c0.02,-0.029 0.034,-0.068 0.043,-0.115c0.009,-0.047 0.013,-0.103 0.013,-0.17c0,-0.067 -0.004,-0.124 -0.013,-0.171c-0.009,-0.047 -0.023,-0.085 -0.043,-0.115c-0.02,-0.029 -0.046,-0.051 -0.079,-0.065c-0.033,-0.013 -0.073,-0.02 -0.12,-0.02c-0.047,0 -0.087,0.007 -0.12,0.02c-0.033,0.014 -0.059,0.036 -0.079,0.066c-0.02,0.029 -0.034,0.067 -0.043,0.114c-0.009,0.047 -0.013,0.104 -0.013,0.171Z" style="fill-rule:nonzero;"/></g><g transform="matrix(48,0,0,48,484.425,256.792)"><path d="M0.23,-0.412l0,-0.168l0.036,0c0.028,0 0.048,0.006 0.061,0.019c0.012,0.013 0.018,0.034 0.018,0.064c0,0.025 -0.006,0.046 -0.019,0.062c-0.013,0.015 -0.032,0.023 -0.059,0.023l-0.037,0Zm-0.186,-0.302l0,0.714l0.186,0l0,-0.286l0.049,0c0.011,0 0.021,0.002 0.028,0.005c0.008,0.003 0.014,0.008 0.019,0.016c0.005,0.007 0.009,0.018 0.011,0.031c0.002,0.013 0.003,0.03 0.003,0.05l0,0.048c0,0.007 0,0.017 0,0.029c0.001,0.011 0.002,0.023 0.002,0.036c0.001,0.013 0.003,0.025 0.005,0.038c0.003,0.013 0.006,0.024 0.011,0.033l0.198,0l0,-0.01c-0.006,-0.003 -0.01,-0.007 -0.013,-0.01c-0.003,-0.004 -0.005,-0.008 -0.008,-0.012c-0.002,-0.004 -0.004,-0.01 -0.005,-0.017c-0.001,-0.007 -0.002,-0.015 -0.003,-0.024c-0.001,-0.009 -0.001,-0.019 -0.001,-0.029l0,-0.029l0,-0.061c0,-0.048 -0.008,-0.086 -0.025,-0.113c-0.017,-0.027 -0.047,-0.043 -0.092,-0.047l0,-0.002c0.043,-0.007 0.074,-0.025 0.093,-0.054c0.019,-0.029 0.029,-0.068 0.029,-0.116c0,-0.027 -0.004,-0.053 -0.011,-0.076c-0.007,-0.023 -0.018,-0.043 -0.034,-0.061c-0.015,-0.017 -0.035,-0.03 -0.061,-0.039c-0.024,-0.009 -0.055,-0.014 -0.09,-0.014l-0.291,0Z" style="fill-rule:nonzero;"/></g><g transform="matrix(48,0,0,48,511.977,256.792)"><path d="M0.037,-0.714l0,0.714l0.186,0l0,-0.189l0.039,-0.06l0.109,0.249l0.212,0l-0.202,-0.402l0.18,-0.312l-0.198,0l-0.138,0.274l-0.002,0l0,-0.274l-0.186,0Z" style="fill-rule:nonzero;"/></g></g><path d="M736.088,292.047l0,-8.352l1.68,0c2.304,0 3.456,1.392 3.456,4.176c0,1.44 -0.296,2.496 -0.888,3.168c-0.592,0.672 -1.448,1.008 -2.568,1.008l-1.68,0Zm-8.928,-14.784l0,34.272l8.928,0l0,-13.056l3.12,0c3.68,0 6.472,-0.888 8.376,-2.664c1.904,-1.776 2.856,-4.44 2.856,-7.992c0,-1.504 -0.192,-2.896 -0.576,-4.176c-0.384,-1.28 -0.984,-2.392 -1.8,-3.336c-0.816,-0.944 -1.848,-1.688 -3.096,-2.232c-1.248,-0.544 -2.72,-0.816 -4.416,-0.816l-13.392,0Z" style="fill-rule:nonzero;"/><path d="M753.272,277.263l0,34.272l19.92,0l0,-7.296l-10.992,0l0,-26.976l-8.928,0Z" style="fill-rule:nonzero;"/><path d="M786.68,284.271l-2.448,14.544l4.992,0l-2.448,-14.544l-0.096,0Zm5.664,-7.008l8.352,34.272l-9.504,0l-0.912,-6l-7.104,0l-0.912,6l-9.36,0l8.208,-34.272l11.232,0Z" style="fill-rule:nonzero;"/><path d="M804.536,298.047l0,13.488l8.928,0l0,-13.488l8.736,-20.784l-9.792,0l-3.36,11.952l-0.096,0l-3.36,-11.952l-9.648,0l8.592,20.784Z" style="fill-rule:nonzero;"/><path d="M836.12,277.263l-3.216,23.712l-0.096,0l-2.688,-23.712l-8.64,0l5.856,34.272l9.792,0l2.976,-23.04l0.096,0l2.976,23.04l9.792,0l5.856,-34.272l-8.64,0l-2.4,23.712l-0.096,0l-3.504,-23.712l-8.064,0Z" style="fill-rule:nonzero;"/><path d="M869.864,291.759l0,-8.064l1.728,0c1.344,0 2.312,0.304 2.904,0.912c0.592,0.608 0.888,1.632 0.888,3.072c0,1.216 -0.304,2.2 -0.912,2.952c-0.608,0.752 -1.552,1.128 -2.832,1.128l-1.776,0Zm-8.928,-14.496l0,34.272l8.928,0l0,-13.728l2.352,0c0.544,0 1,0.072 1.368,0.216c0.368,0.144 0.672,0.4 0.912,0.768c0.24,0.368 0.408,0.872 0.504,1.512c0.096,0.64 0.144,1.44 0.144,2.4l0,2.304c0,0.352 0.008,0.808 0.024,1.368c0.016,0.56 0.048,1.144 0.096,1.752c0.048,0.608 0.128,1.216 0.24,1.824c0.112,0.608 0.28,1.136 0.504,1.584l9.504,0l0,-0.48c-0.288,-0.16 -0.496,-0.328 -0.624,-0.504c-0.128,-0.176 -0.256,-0.36 -0.384,-0.552c-0.096,-0.192 -0.176,-0.464 -0.24,-0.816c-0.064,-0.352 -0.112,-0.744 -0.144,-1.176c-0.032,-0.432 -0.048,-0.888 -0.048,-1.368l0,-1.392l0,-2.928c0,-2.304 -0.4,-4.112 -1.2,-5.424c-0.8,-1.312 -2.272,-2.064 -4.416,-2.256l0,-0.096c2.048,-0.32 3.536,-1.184 4.464,-2.592c0.928,-1.408 1.392,-3.264 1.392,-5.568c0,-1.312 -0.168,-2.528 -0.504,-3.648c-0.336,-1.12 -0.88,-2.088 -1.632,-2.904c-0.752,-0.816 -1.728,-1.448 -2.928,-1.896c-1.2,-0.448 -2.648,-0.672 -4.344,-0.672l-13.968,0Z" style="fill-rule:nonzero;"/><rect x="888.152" y="277.263" width="8.928" height="34.272" style="fill-rule:nonzero;"/><path d="M912.488,292.911l0,6.048l3.168,0c0,1.472 -0.072,2.68 -0.216,3.624c-0.144,0.944 -0.344,1.68 -0.6,2.208c-0.256,0.528 -0.568,0.888 -0.936,1.08c-0.368,0.192 -0.792,0.288 -1.272,0.288c-0.672,0 -1.208,-0.176 -1.608,-0.528c-0.4,-0.352 -0.704,-0.976 -0.912,-1.872c-0.208,-0.896 -0.344,-2.104 -0.408,-3.624c-0.064,-1.52 -0.096,-3.432 -0.096,-5.736c0,-2.304 0.032,-4.216 0.096,-5.736c0.064,-1.52 0.2,-2.728 0.408,-3.624c0.208,-0.896 0.528,-1.52 0.96,-1.872c0.432,-0.352 1.016,-0.528 1.752,-0.528c1.056,0 1.744,0.496 2.064,1.488c0.32,0.832 0.48,2.16 0.48,3.984l8.64,0c0,-2.08 -0.272,-3.848 -0.816,-5.304c-0.544,-1.456 -1.296,-2.648 -2.256,-3.576c-0.96,-0.928 -2.104,-1.6 -3.432,-2.016c-1.328,-0.416 -2.776,-0.624 -4.344,-0.624c-2.624,0 -4.768,0.392 -6.432,1.176c-1.664,0.784 -2.968,1.928 -3.912,3.432c-0.944,1.504 -1.584,3.36 -1.92,5.568c-0.336,2.208 -0.504,4.752 -0.504,7.632c0,2.848 0.088,5.376 0.264,7.584c0.176,2.208 0.6,4.064 1.272,5.568c0.672,1.504 1.664,2.632 2.976,3.384c1.312,0.752 3.104,1.128 5.376,1.128c0.768,0 1.528,-0.048 2.28,-0.144c0.752,-0.096 1.456,-0.264 2.112,-0.504c0.656,-0.24 1.248,-0.6 1.776,-1.08c0.528,-0.48 0.936,-1.088 1.224,-1.824l0.096,0l0.192,3.024l6.048,0l0,-18.624l-11.52,0Z" style="fill-rule:nonzero;"/><path d="M927.656,277.263l0,34.272l8.928,0l0,-14.112l5.472,0l0,14.112l8.928,0l0,-34.272l-8.928,0l0,12.576l-5.472,0l0,-12.576l-8.928,0Z" style="fill-rule:nonzero;"/><path d="M959.72,284.847l0,26.688l8.928,0l0,-26.688l6.72,0l0,-7.584l-22.272,0l0,7.584l6.624,0Z" style="fill-rule:nonzero;"/><clipPath id="_clip1"><rect id="OOjs_UI_icon_heart" x="572.755" y="285.428" width="27.245" height="29.144"/></clipPath><g clip-path="url(#_clip1)"><path d="M592.848,286.885c-2.762,-0.007 -5.29,1.701 -6.471,4.372c-1.163,-2.704 -3.702,-4.444 -6.484,-4.444c-3.916,0 -7.139,3.446 -7.139,7.635c0,0.029 0,0.058 0.001,0.087c0,8.015 13.622,18.58 13.622,18.58c0,0 13.623,-10.565 13.623,-18.58c0,-4.196 -3.228,-7.65 -7.152,-7.65Z" style="fill:#ed6363;fill-rule:nonzero;"/></g></svg>